<?xml version="1.0" encoding="utf-8"?>
<!-- Generator: Adobe Illustrator 20.1.0, SVG Export Plug-In . SVG Version: 6.00 Build 0)  -->
<svg version="1.1" id="Layer_1" xmlns="http://www.w3.org/2000/svg" xmlns:xlink="http://www.w3.org/1999/xlink" x="0px" y="0px"
	 viewBox="0 0 100 100" style="enable-background:new 0 0 100 100;" xml:space="preserve">
<style type="text/css">
	.st0{opacity:0.2;}
	.st1{fill:#FFCF8E;}
</style>
<g class="st0">
	<path class="st1" d="M99,50c0,27-21.9,49-49,49S1,77,1,50S22.9,1,50,1S99,23,99,50"/>
</g>
<g>
	<path class="st1" d="M50,100C22.4,100,0,77.5,0,50S22.4,0,50,0s50,22.5,50,50S77.6,100,50,100z M50,2C23.5,2,2,23.6,2,50
		s21.5,48,48,48s48-21.6,48-48S76.5,2,50,2z"/>
</g>
<polygon class="st1" points="59.3,11.2 32.5,54.3 46.5,54.3 40.8,88.8 67.5,45.7 53.4,45.7 "/>
</svg>
